<?xml version="1.0" encoding="UTF-8"?>
<svg id="_레이어_1" data-name="레이어 1" xmlns="http://www.w3.org/2000/svg" viewBox="0 0 391.45 233">
  <path d="m0,113.44c4.07-5.94,7.72-12.23,12.28-17.78,24.61-29.92,53.38-54.9,88.14-72.5C124.15,11.15,149.17,3.49,175.72.97c51.73-4.9,98.47,8.87,141.27,37.51,27.6,18.47,50.63,41.72,70.71,68.01,4.97,6.51,4.99,13.56.04,20.04-23.34,30.56-50.62,56.81-83.98,76.33-27.37,16.01-56.69,26.18-88.4,29.18-46.35,4.38-89.15-6.4-128.97-29.95C53.46,182.62,26.57,156.5,3.54,126.21,2.04,124.24,1.16,121.78,0,119.55c0-2.04,0-4.08,0-6.12Zm113.52.37c-.85,46.08,34.76,84.05,79.66,84.94,45.56.9,83.89-35.12,84.7-79.59.84-46.07-34.82-84.07-79.7-84.9-45.76-.85-83.84,34.93-84.66,79.56Z"/>
  <path d="m240.02,116.62c-.17,24.38-20.34,44.25-44.8,44.15-24.21-.1-43.94-20.23-43.79-44.66.15-24.23,20.47-44.05,45.02-43.93,24.03.13,43.74,20.23,43.57,44.44Z"/>
</svg>