<?xml version="1.0" encoding="UTF-8"?>
<svg id="_레이어_1" data-name="레이어 1" xmlns="http://www.w3.org/2000/svg" viewBox="0 0 383.35 383.22">
  <defs>
    <style>
      .cls-1 {
        fill: #fff;
      }
    </style>
  </defs>
  <path d="m0,188.6c9.2-11.25,17.85-23.02,27.72-33.66,25.53-27.51,54.29-51.05,88.14-67.82,24.45-12.11,50.15-19.38,77.67-19,28.01.38,53.94,8.56,78.6,21.35,1.2.62,2.41,1.23,4.35,2.22.84-1.11,1.62-2.43,2.67-3.48,27.85-27.89,55.73-55.74,83.57-83.64,3.49-3.5,7.33-5.58,12.39-4.07,7.51,2.25,10.48,10.68,6.01,17.13-.84,1.22-1.92,2.29-2.98,3.34-118.79,118.8-237.58,237.6-356.42,356.36-2.23,2.23-4.99,3.94-7.51,5.89h-5.99C4.53,381.44,1.76,378.71,0,374.99,0,372.99,0,370.99,0,369c2.4-2.95,4.56-6.14,7.23-8.83,25.68-25.8,51.45-51.52,77.18-77.27,1-1,1.95-2.06,3.08-3.25-19.21-12.94-36.47-27.42-52.31-43.57C22.45,223.12,9.99,209.89,0,194.59c0-2,0-3.99,0-5.99Zm144.28,33.7c-13.4-24.5-12.94-48.58,7.01-69.27,20.8-21.58,45.54-22.57,71.84-8.4,2.46-2.61,5-5.35,7.6-8.03,2.55-2.63,5.16-5.2,7.78-7.83-30.63-23.44-77.6-21.45-106.16,11.3-28.3,32.46-22.07,76.35-3.61,97.81,5.16-5.17,10.33-10.36,15.53-15.58Z"/>
  <path class="cls-1" d="m0,194.59c9.99,15.3,22.45,28.53,35.18,41.5,15.84,16.14,33.11,30.62,52.31,43.57-1.12,1.19-2.07,2.24-3.08,3.25-25.74,25.75-51.5,51.46-77.18,77.27C4.56,362.86,2.4,366.04,0,369c0-58.14,0-116.27,0-174.41Z"/>
  <path class="cls-1" d="m0,374.99c1.76,3.73,4.53,6.45,8.23,8.23H0v-8.23Z"/>
  <path d="m129.32,301.82c.76-.86,1.44-1.72,2.2-2.48,10.49-10.51,21.02-20.96,31.44-31.54,1.61-1.63,2.9-2.04,5.16-1.32,52.47,16.67,105.81-25.22,101.86-80.1-.45-6.28-2.35-12.45-3.46-18.69-.21-1.17-.3-2.93.37-3.61,15.59-15.79,31.3-31.48,47.36-47.56,7.76,6.76,15.52,13.22,22.94,20.05,15.72,14.48,30.1,30.21,43.01,47.26,4.02,5.31,4.23,10.01.31,15.07-30.77,39.68-66.72,73.43-111.79,96.48-25.8,13.2-53.13,20.53-82.38,19.65-17.29-.52-44.24-6.63-57.03-13.21Z"/>
  <path d="m184.28,247.34c21.18-21.2,41.84-41.88,62.42-62.47,3.41,8.95-.81,29.78-11.87,42.51-13.3,15.31-30.01,21.8-50.55,19.96Z"/>
</svg>