<?xml version="1.0" encoding="UTF-8"?>
<svg id="uuid-48e4d0c7-57d9-4dbc-b6b7-f4ee4fd3e206" data-name="레이어 2" xmlns="http://www.w3.org/2000/svg" viewBox="0 0 1038.99 446.5">
  <g id="uuid-4926b586-2681-4194-9b17-d8150de83e74" data-name="대지 1" style="isolation: isolate;">
    <g id="uuid-1acff369-48e7-471e-9ac3-a6a11e1f3c78" data-name="선 2">
      <rect x="142.73" y="44.25" width="13.88" height=".6" style="fill: none; stroke: #5e6285; stroke-miterlimit: 100; stroke-width: 3px;"/>
    </g>
    <g id="uuid-e7cf7b84-b29b-44db-a299-1f1c2dde5972" data-name="선 2 복사">
      <rect x="142.73" y="59.93" width="13.88" height=".6" style="fill: none; stroke: #5e6285; stroke-miterlimit: 100; stroke-width: 3px;"/>
    </g>
    <g id="uuid-455cf644-baf9-422b-847b-ec4ef70838d9" data-name="선 2 복사 2">
      <rect x="142.73" y="75.02" width="13.88" height=".6" style="fill: none; stroke: #5e6285; stroke-miterlimit: 100; stroke-width: 3px;"/>
    </g>
    <g id="uuid-023aa4e3-f452-4f7a-90a2-36ac2a0d5f6b" data-name="선 2 복사 3">
      <rect x="142.73" y="90.71" width="13.88" height=".6" style="fill: none; stroke: #5e6285; stroke-miterlimit: 100; stroke-width: 3px;"/>
    </g>
    <g id="uuid-ad3e400b-66e9-4e1b-baa3-35c3e1d26c0d" data-name="선 2 복사 4">
      <rect x="125.83" y="105.79" width="30.77" height=".6" style="fill: none; stroke: #5e6285; stroke-miterlimit: 100; stroke-width: 3px;"/>
    </g>
    <g id="uuid-d7837fcf-22bd-4a4e-acf9-32c429fecbc4" data-name="선 2 복사 5">
      <rect x="142.73" y="121.48" width="13.88" height=".6" style="fill: none; stroke: #5e6285; stroke-miterlimit: 100; stroke-width: 3px;"/>
    </g>
    <g id="uuid-394dd862-6cf4-488b-b69d-f6421ba32f28" data-name="선 2 복사 6">
      <rect x="143.33" y="136.57" width="13.88" height=".6" style="fill: none; stroke: #5e6285; stroke-miterlimit: 100; stroke-width: 3px;"/>
    </g>
    <g id="uuid-06892b9d-7349-45b9-b5b2-76355e5aa49b" data-name="선 2 복사 7">
      <rect x="143.33" y="152.26" width="13.88" height=".6" style="fill: none; stroke: #5e6285; stroke-miterlimit: 100; stroke-width: 3px;"/>
    </g>
    <g id="uuid-b408dfc5-0bee-4673-859a-b16ba8b4b9ee" data-name="선 2 복사 8">
      <rect x="143.33" y="167.34" width="13.88" height=".6" style="fill: none; stroke: #5e6285; stroke-miterlimit: 100; stroke-width: 3px;"/>
    </g>
    <g id="uuid-2a96679d-2752-48aa-b7a3-1e12c2441580" data-name="선 2 복사 9">
      <rect x="797.08" y="45.09" width="13.88" height=".6" style="fill: none; stroke: #5e6285; stroke-miterlimit: 100; stroke-width: 3px;"/>
    </g>
    <g id="uuid-1b846fe7-1071-4828-bd59-ded7138f053e" data-name="선 2 복사 9">
      <rect x="797.08" y="60.78" width="13.88" height=".6" style="fill: none; stroke: #5e6285; stroke-miterlimit: 100; stroke-width: 3px;"/>
    </g>
    <g id="uuid-de4d6ef8-3874-4a67-8bdc-ac1a3d9fb4c4" data-name="선 2 복사 9">
      <rect x="797.08" y="75.87" width="13.88" height=".6" style="fill: none; stroke: #5e6285; stroke-miterlimit: 100; stroke-width: 3px;"/>
    </g>
    <g id="uuid-0b7aeaf0-a22a-4b22-abe8-7b8f4268aa43" data-name="선 2 복사 9">
      <rect x="797.08" y="91.55" width="13.88" height=".6" style="fill: none; stroke: #5e6285; stroke-miterlimit: 100; stroke-width: 3px;"/>
    </g>
    <g id="uuid-5f035353-4e0a-4004-a83d-a15f3e2c66fe" data-name="선 2 복사 9">
      <rect x="780.18" y="106.64" width="30.77" height=".6" style="fill: none; stroke: #5e6285; stroke-miterlimit: 100; stroke-width: 3px;"/>
    </g>
    <g id="uuid-9045182f-26d7-4d80-bc72-0b80c7ed78d8" data-name="선 2 복사 9">
      <rect x="797.08" y="122.33" width="13.88" height=".6" style="fill: none; stroke: #5e6285; stroke-miterlimit: 100; stroke-width: 3px;"/>
    </g>
    <g id="uuid-b25a9706-8e44-4092-b66c-b1ae8a7da482" data-name="선 2 복사 9">
      <rect x="797.68" y="137.41" width="13.88" height=".6" style="fill: none; stroke: #5e6285; stroke-miterlimit: 100; stroke-width: 3px;"/>
    </g>
    <g id="uuid-8a18ee71-c57b-47dc-8b6d-0ccd5b867e6d" data-name="선 2 복사 9">
      <rect x="797.68" y="153.1" width="13.88" height=".6" style="fill: none; stroke: #5e6285; stroke-miterlimit: 100; stroke-width: 3px;"/>
    </g>
    <g id="uuid-2b2633a4-9dbc-40c2-9422-e67ce0995d8e" data-name="선 2 복사 9">
      <rect x="797.68" y="168.19" width="13.88" height=".6" style="fill: none; stroke: #5e6285; stroke-miterlimit: 100; stroke-width: 3px;"/>
    </g>
    <g id="uuid-95098925-1372-4b6e-8762-138ec5affe33" data-name="선 2 복사 10">
      <rect x="851.43" y="297.81" width="22.12" height=".6" style="fill: none; stroke: #5e6285; stroke-miterlimit: 100; stroke-width: 3px;"/>
    </g>
    <g id="uuid-eed99827-126e-4ebb-a874-c571facfaf6b" data-name="선 2 복사 10">
      <rect x="851.43" y="313.52" width="22.12" height=".6" style="fill: none; stroke: #5e6285; stroke-miterlimit: 100; stroke-width: 3px;"/>
    </g>
    <g id="uuid-b0f568e4-666f-43c9-b309-7fee7803b8da" data-name="선 2 복사 10">
      <rect x="851.43" y="328.63" width="22.12" height=".6" style="fill: none; stroke: #5e6285; stroke-miterlimit: 100; stroke-width: 3px;"/>
    </g>
    <g id="uuid-404f2517-91dc-40e5-8a6a-be1638ba3e28" data-name="선 2 복사 10">
      <rect x="851.43" y="344.34" width="22.12" height=".6" style="fill: none; stroke: #5e6285; stroke-miterlimit: 100; stroke-width: 3px;"/>
    </g>
    <g id="uuid-738d62c5-90ed-4396-b02d-457dbd5b431e" data-name="선 2 복사 10">
      <rect x="824.5" y="359.45" width="49.04" height=".6" style="fill: none; stroke: #5e6285; stroke-miterlimit: 100; stroke-width: 3px;"/>
    </g>
    <g id="uuid-0823f2eb-4e54-4dc0-b2dc-ea8039b8002e" data-name="선 2 복사 10">
      <rect x="851.43" y="375.17" width="22.12" height=".6" style="fill: none; stroke: #5e6285; stroke-miterlimit: 100; stroke-width: 3px;"/>
    </g>
    <g id="uuid-32a762ee-5aaa-4137-b055-de0b62e0ec81" data-name="선 2 복사 10">
      <rect x="852.39" y="390.28" width="22.12" height=".6" style="fill: none; stroke: #5e6285; stroke-miterlimit: 100; stroke-width: 3px;"/>
    </g>
    <g id="uuid-11f2c62b-e867-4662-a0b3-a76b5be9f1a0" data-name="선 2 복사 10">
      <rect x="852.39" y="405.99" width="22.12" height=".6" style="fill: none; stroke: #5e6285; stroke-miterlimit: 100; stroke-width: 3px;"/>
    </g>
    <g id="uuid-7a7a95cb-ecfd-4740-8c68-c92a5bf1601d" data-name="선 2 복사 10">
      <rect x="852.39" y="421.1" width="22.12" height=".6" style="fill: none; stroke: #5e6285; stroke-miterlimit: 100; stroke-width: 3px;"/>
    </g>
    <g id="uuid-72d8790a-b7d0-4729-bc30-a303299d85f4" data-name="선 2 복사 9">
      <rect x="383.52" y="326.55" width="23.74" height=".47" style="fill: none; stroke: #5e6285; stroke-miterlimit: 100; stroke-width: 3px;"/>
    </g>
    <g id="uuid-4eaf1b48-438b-46dd-959a-021b812a7624" data-name="선 2 복사 9">
      <rect x="383.52" y="338.88" width="23.74" height=".47" style="fill: none; stroke: #5e6285; stroke-miterlimit: 100; stroke-width: 3px;"/>
    </g>
    <g id="uuid-4ee73177-a084-447a-ad7e-1acd97fb1bcf" data-name="선 2 복사 9">
      <rect x="383.52" y="350.72" width="23.74" height=".47" style="fill: none; stroke: #5e6285; stroke-miterlimit: 100; stroke-width: 3px;"/>
    </g>
    <g id="uuid-2bc0b2b6-1ff5-4f63-b21c-312951ba09ab" data-name="선 2 복사 9">
      <rect x="383.52" y="363.05" width="23.74" height=".47" style="fill: none; stroke: #5e6285; stroke-miterlimit: 100; stroke-width: 3px;"/>
    </g>
    <g id="uuid-4162f53a-941f-4dd8-94d2-6445fb3ed199" data-name="선 2 복사 9">
      <rect x="354.63" y="374.89" width="52.63" height=".47" style="fill: none; stroke: #5e6285; stroke-miterlimit: 100; stroke-width: 3px;"/>
    </g>
    <g id="uuid-854d7c8f-475f-401e-b486-f778ce9f3a4d" data-name="선 2 복사 9">
      <rect x="383.52" y="387.21" width="23.74" height=".47" style="fill: none; stroke: #5e6285; stroke-miterlimit: 100; stroke-width: 3px;"/>
    </g>
    <g id="uuid-20939723-db87-4b9b-9cc7-3f3862d6fe1c" data-name="선 2 복사 9">
      <rect x="384.55" y="399.06" width="23.74" height=".47" style="fill: none; stroke: #5e6285; stroke-miterlimit: 100; stroke-width: 3px;"/>
    </g>
    <g id="uuid-ff248e96-7883-42ad-ae12-9cdd17f8ec7f" data-name="선 2 복사 9">
      <rect x="384.55" y="411.38" width="23.74" height=".47" style="fill: none; stroke: #5e6285; stroke-miterlimit: 100; stroke-width: 3px;"/>
    </g>
    <g id="uuid-4f5359f7-4a97-4b47-b974-7a4736405e94" data-name="선 2 복사 9">
      <rect x="384.55" y="423.23" width="23.74" height=".47" style="fill: none; stroke: #5e6285; stroke-miterlimit: 100; stroke-width: 3px;"/>
    </g>
    <g id="uuid-bbde4143-1da4-421b-8b17-8a5a204a1974" data-name="P">
      <polyline points="12.86 390.37 12.86 21.57 12.86 4.07 75.3 4.07 75.3 10.35 29.32 10.35 20.03 10.35 20.03 394.67 12.86 390.37" style="fill: #8ad2ff; fill-rule: evenodd; stroke: #8ad2ff; stroke-miterlimit: 100; stroke-width: 3px;"/>
      <polygon points="275.25 307.55 275.25 260.46 275.25 248.19 754.82 248.19 754.82 236.79 754.82 186.25 747.55 186.25 747.55 232.17 747.55 240.84 268.3 240.76 268.3 258.09 268.3 307.47 275.25 307.55" style="fill: #ffb4d6; stroke: #ffb4d6; stroke-miterlimit: 100; stroke-width: 3px;"/>
      <polygon points="882.53 357.89 934.9 357.89 934.9 374.31 934.9 393.66 927.4 393.66 927.4 375.71 927.2 365.31 883.73 365.31 877.74 365.2 877.74 357.89 882.53 357.89" style="fill: #8ad2ff; fill-rule: evenodd; stroke: #8ad2ff; stroke-miterlimit: 100; stroke-width: 3px;"/>
      <polyline points="643.31 287.66 531.03 287.66 531.03 304.09 531.03 323.43 538.52 323.43 538.52 305.49 538.52 295.08 642.11 295.08" style="fill: #8ad2ff; fill-rule: evenodd; stroke: #8ad2ff; stroke-miterlimit: 100; stroke-width: 3px;"/>
      <polyline points="877.74 365.2 973.44 365.31 1016.9 365.31 1017.11 375.71 1017.11 393.66 1024.6 393.66 1024.6 374.31 1024.6 357.89 972.23 357.89 877.74 357.89" style="fill: #8ad2ff; fill-rule: evenodd; stroke: #8ad2ff; stroke-miterlimit: 100; stroke-width: 3px;"/>
      <polyline points="644.57 409.89 699.43 409.51 699.43 402.09 639.09 402.09" style="fill: #8ad2ff; fill-rule: evenodd; stroke: #8ad2ff; stroke-miterlimit: 100; stroke-width: 3px;"/>
      <polyline points="546.99 337.69 696.63 337.32 696.63 329.9 537.7 329.9" style="fill: #8ad2ff; fill-rule: evenodd; stroke: #8ad2ff; stroke-miterlimit: 100; stroke-width: 3px;"/>
      <polygon points="638.49 395.26 638.49 20.87 638.49 1.5 725.42 1.5 725.52 8.82 645.98 8.82 645.98 21.09 645.98 395.26 638.49 395.26" style="fill: #8ad2ff; fill-rule: evenodd; stroke: #8ad2ff; stroke-miterlimit: 100; stroke-width: 3px;"/>
      <rect x="68.17" y="5.38" width="7.17" height="16.8" style="fill: #8ad2ff; stroke: #8ad2ff; stroke-miterlimit: 100; stroke-width: 3px;"/>
      <rect x="725.52" y="1.5" width="7.17" height="20.68" style="fill: #8ad2ff; stroke: #8ad2ff; stroke-miterlimit: 100; stroke-width: 3px;"/>
    </g>
    <g id="uuid-ef4c3e59-101e-488d-bd78-0fa0e9c409c0" data-name="사각형 1 복사 4">
      <rect x="698.93" y="281.19" width="175.17" height="156.53" rx="6.03" ry="6.03" style="fill: none; stroke: #5e6285; stroke-miterlimit: 100; stroke-width: 8px;"/>
    </g>
    <path d="m252.89,314.13h-22.72c-5.69,0-10.3,3.59-10.3,8.03v106.08c0,4.43,4.61,8.03,10.3,8.03h166.79c5.69,0,10.3-3.59,10.3-8.03v-106.08c0-4.43-4.61-8.03-10.3-8.03h-110.12" style="fill: none; fill-rule: evenodd; stroke: #5e6285; stroke-miterlimit: 100; stroke-width: 8px;"/>
    <path d="m61.09,27.65h-8.01c-3.33,0-6.03,2.7-6.03,6.03v144.22c0,3.33,2.7,6.03,6.03,6.03h97.85c3.33,0,6.03-2.7,6.03-6.03V33.69c0-3.33-2.7-6.03-6.03-6.03h-54.39" style="fill: none; fill-rule: evenodd; stroke: #5e6285; stroke-miterlimit: 100; stroke-width: 8px;"/>
    <path d="m717.51,27.89h-8.01c-3.33,0-6.03,2.7-6.03,6.03v144.22c0,3.33,2.7,6.03,6.03,6.03h97.85c3.33,0,6.03-2.7,6.03-6.03V33.93c0-3.33-2.7-6.03-6.03-6.03h-54.39" style="fill: none; fill-rule: evenodd; stroke: #5e6285; stroke-miterlimit: 100; stroke-width: 8px;"/>
    <g>
      <g id="uuid-8713d778-01bc-4f5a-8527-e703f3d2e7ac" data-name="타원 2">
        <path d="m17.37,388.73C7.89,388.52-.08,396.17,0,406.1c.08,9.59,7.78,17.37,17.37,17.37s17.37-7.78,17.37-17.37-7.78-17.17-17.37-17.37Z" style="fill: #5e6285; fill-rule: evenodd; stroke-width: 0px;"/>
      </g>
      <g id="uuid-0e445937-986d-4450-8774-aaa83a1793c0" data-name="삼각형 1">
        <path d="m32.21,441.72l-12.59-17.54c-1.2-1.68-3.7-1.68-4.9,0l-12.59,17.54c-1.43,2,0,4.78,2.45,4.78h25.18c2.46,0,3.88-2.78,2.45-4.78Z" style="fill: #5e6285; fill-rule: evenodd; stroke-width: 0px;"/>
      </g>
      <path d="m12.66,398.53h5.74c1.09,0,2.04.21,2.83.62.79.42,1.4,1,1.81,1.75s.62,1.61.62,2.58-.21,1.84-.63,2.58c-.42.74-1.03,1.32-1.83,1.73-.8.42-1.76.62-2.87.62h-3.69v-2.45h3.21c.59,0,1.08-.1,1.48-.31.4-.21.7-.5.9-.87s.29-.81.29-1.31-.1-.93-.29-1.3-.5-.65-.9-.85-.9-.3-1.49-.3h-2.14v12.17h-3.04v-14.67Z" style="fill: #fefefe; stroke-width: 0px;"/>
    </g>
    <g>
      <g id="uuid-4cc2f8a9-89f6-4303-bef2-0d211e4c345f" data-name="타원 2">
        <path d="m535.75,315.56c-10.01,0-17.46,7.44-17.37,17.37.08,9.59,7.78,17.37,17.37,17.37s17.37-7.78,17.37-17.37-7.78-17.37-17.37-17.37Z" style="fill: #5e6285; fill-rule: evenodd; stroke-width: 0px;"/>
      </g>
      <g id="uuid-5b8fdf22-5035-4ede-a8b0-479a19e4e2c9" data-name="삼각형 1">
        <path d="m550.58,368.55l-12.59-17.54c-1.2-1.68-3.7-1.68-4.9,0l-12.59,17.54c-1.43,2,0,4.78,2.45,4.78h25.18c2.46,0,3.88-2.78,2.45-4.78Z" style="fill: #5e6285; fill-rule: evenodd; stroke-width: 0px;"/>
      </g>
      <path d="m531.03,325.37h5.74c1.09,0,2.04.21,2.83.62s1.4,1,1.81,1.75.62,1.61.62,2.58-.21,1.84-.63,2.58c-.42.74-1.03,1.32-1.83,1.73-.8.42-1.76.62-2.87.62h-3.69v-2.45h3.21c.59,0,1.08-.1,1.49-.31.4-.21.7-.5.9-.87.2-.37.29-.81.29-1.31s-.1-.93-.29-1.3c-.2-.37-.5-.65-.9-.85s-.9-.3-1.49-.3h-2.14v12.17h-3.04v-14.67Z" style="fill: #fefefe; stroke-width: 0px;"/>
    </g>
    <g>
      <g id="uuid-358b42d4-f2ed-494f-bfd7-3304438a6455" data-name="타원 2">
        <path d="m642.71,388.27c-9.55,0-17.46,7.44-17.37,17.37.08,9.59,7.78,17.37,17.37,17.37s17.37-7.78,17.37-17.37-7.78-17.37-17.37-17.37Z" style="fill: #5e6285; fill-rule: evenodd; stroke-width: 0px;"/>
      </g>
      <g id="uuid-c1e23906-6cf2-4370-824e-e23102d7b0eb" data-name="삼각형 1">
        <path d="m657.55,441.26l-12.59-17.54c-1.2-1.68-3.7-1.68-4.9,0l-12.59,17.54c-1.43,2,0,4.78,2.45,4.78h25.18c2.46,0,3.88-2.78,2.45-4.78Z" style="fill: #5e6285; fill-rule: evenodd; stroke-width: 0px;"/>
      </g>
      <path d="m637.99,398.07h5.74c1.09,0,2.04.21,2.83.62s1.4,1,1.81,1.75.62,1.61.62,2.58-.21,1.84-.63,2.58c-.42.74-1.03,1.32-1.83,1.73-.8.42-1.76.62-2.87.62h-3.69v-2.45h3.21c.59,0,1.08-.1,1.48-.31.4-.21.7-.5.9-.87s.29-.81.29-1.31-.1-.93-.29-1.3-.5-.65-.9-.85-.9-.3-1.49-.3h-2.14v12.17h-3.04v-14.67Z" style="fill: #fefefe; stroke-width: 0px;"/>
    </g>
    <g>
      <g id="uuid-5270c4c7-1370-4847-bcdd-10f033323ce1" data-name="타원 2">
        <path d="m930.93,388.27c-10.07,0-17.46,7.44-17.37,17.37.08,9.59,7.78,17.37,17.37,17.37s17.37-7.78,17.37-17.37-7.78-17.37-17.37-17.37Z" style="fill: #5e6285; fill-rule: evenodd; stroke-width: 0px;"/>
      </g>
      <g id="uuid-d3f4bcac-326b-4a6c-93e3-ca82f0d00ab1" data-name="삼각형 1">
        <path d="m945.76,441.26l-12.59-17.54c-1.2-1.68-3.7-1.68-4.9,0l-12.59,17.54c-1.43,2,0,4.78,2.45,4.78h25.18c2.46,0,3.88-2.78,2.45-4.78Z" style="fill: #5e6285; fill-rule: evenodd; stroke-width: 0px;"/>
      </g>
      <path d="m926.21,398.07h5.74c1.09,0,2.04.21,2.83.62s1.4,1,1.81,1.75.62,1.61.62,2.58-.21,1.84-.63,2.58c-.42.74-1.03,1.32-1.83,1.73-.8.42-1.76.62-2.87.62h-3.69v-2.45h3.21c.59,0,1.08-.1,1.48-.31.4-.21.7-.5.9-.87s.29-.81.29-1.31-.1-.93-.29-1.3-.5-.65-.9-.85-.9-.3-1.49-.3h-2.14v12.17h-3.04v-14.67Z" style="fill: #fefefe; stroke-width: 0px;"/>
    </g>
    <g>
      <g id="uuid-1db58514-5539-4528-ae9d-757217aa6989" data-name="타원 2">
        <path d="m1021.62,388.27c-10.04,0-17.46,7.44-17.37,17.37.08,9.59,7.78,17.37,17.37,17.37s17.37-7.78,17.37-17.37-7.78-17.37-17.37-17.37Z" style="fill: #5e6285; fill-rule: evenodd; stroke-width: 0px;"/>
      </g>
      <g id="uuid-930bf2d3-48d0-4eb0-b3f4-915ede13bcb6" data-name="삼각형 1">
        <path d="m1036.46,441.26l-12.59-17.54c-1.2-1.68-3.7-1.68-4.9,0l-12.59,17.54c-1.43,2,0,4.78,2.45,4.78h25.18c2.46,0,3.88-2.78,2.45-4.78Z" style="fill: #5e6285; fill-rule: evenodd; stroke-width: 0px;"/>
      </g>
      <path d="m1016.9,398.07h5.74c1.09,0,2.04.21,2.83.62s1.4,1,1.81,1.75.62,1.61.62,2.58-.21,1.84-.63,2.58c-.42.74-1.03,1.32-1.83,1.73-.8.42-1.76.62-2.87.62h-3.69v-2.45h3.21c.59,0,1.08-.1,1.48-.31.4-.21.7-.5.9-.87s.29-.81.29-1.31-.1-.93-.29-1.3-.5-.65-.9-.85-.9-.3-1.49-.3h-2.14v12.17h-3.04v-14.67Z" style="fill: #fefefe; stroke-width: 0px;"/>
    </g>
    <polygon points="339.81 244.11 324.01 228.2 324.01 260.03 339.81 244.11" style="fill: none; fill-rule: evenodd; stroke: #ff65a9; stroke-miterlimit: 100; stroke-width: 3px;"/>
    <polygon points="339.81 244.11 355.61 228.2 355.61 260.03 339.81 244.11" style="fill: none; fill-rule: evenodd; stroke: #ff65a9; stroke-miterlimit: 100; stroke-width: 3px;"/>
  </g>
</svg>