<?xml version="1.0" encoding="UTF-8"?>
<svg id="uuid-a1e83902-ec74-435f-bcd6-5f36b816a8f4" data-name="레이어 2" xmlns="http://www.w3.org/2000/svg" viewBox="0 0 48.04 79.87">
  <g id="uuid-f7d36c0e-3506-4773-a5d2-93f6e24d7e39" data-name="대지 1" style="isolation: isolate;">
    <g>
      <g id="uuid-9bab2824-38da-4ba9-a32e-ddef4c2cee8d" data-name="타원 2">
        <path d="m24.02,0C10.91-.28-.11,10.3,0,24.02c.11,13.26,10.75,24.02,24.02,24.02s24.02-10.75,24.02-24.02S37.28.29,24.02,0Z" style="fill: #5e6285; fill-rule: evenodd; stroke-width: 0px;"/>
      </g>
      <g id="uuid-f02ff6f1-d1bf-43fd-9e73-af53d2b50d90" data-name="삼각형 1">
        <path d="m44.53,73.26l-17.41-24.25c-1.66-2.32-5.11-2.32-6.78,0L2.94,73.26c-1.98,2.76,0,6.6,3.39,6.6h34.82c3.4,0,5.37-3.84,3.39-6.6Z" style="fill: #5e6285; fill-rule: evenodd; stroke-width: 0px;"/>
      </g>
      <path d="m17.5,13.56h7.93c1.51,0,2.82.29,3.92.86,1.1.57,1.93,1.38,2.5,2.42.57,1.04.85,2.23.85,3.57s-.29,2.54-.87,3.57c-.58,1.02-1.42,1.82-2.54,2.4-1.11.57-2.43.86-3.96.86h-5.1v-3.39h4.44c.81,0,1.5-.14,2.05-.43.56-.29.97-.68,1.24-1.2.27-.51.41-1.12.41-1.81s-.14-1.29-.41-1.8c-.27-.51-.69-.9-1.25-1.18s-1.25-.41-2.06-.41h-2.96v16.83h-4.2V13.56Z" style="fill: #fefefe; stroke-width: 0px;"/>
    </g>
  </g>
</svg>